<svg xmlns="http://www.w3.org/2000/svg" width="60" height="578.525" viewBox="0 0 60 578.525"><path d="M32.721,41.384a34.862,34.862,0,0,1-16.393-3.811A28.494,28.494,0,0,1,4.893,26.917,29.419,29.419,0,0,1,.754,11.384,29.419,29.419,0,0,1,4.893-4.149,28.494,28.494,0,0,1,16.328-14.8a34.862,34.862,0,0,1,16.393-3.811,35.988,35.988,0,0,1,14.918,2.951,27.689,27.689,0,0,1,10.82,8.525L46.246,3.761Q40.918-2.96,33.7-2.96A12.811,12.811,0,0,0,23.951.933q-3.689,3.893-3.689,10.451t3.689,10.451A12.811,12.811,0,0,0,33.7,25.728q7.213,0,12.541-6.721l12.213,10.9a27.689,27.689,0,0,1-10.82,8.525A35.988,35.988,0,0,1,32.721,41.384Zm66.148,0q-13.2,0-20.574-7.131t-7.377-20V-17.3H90.262V13.679q0,6.311,2.254,9.18a8.835,8.835,0,0,0,13.033,0q2.254-2.869,2.254-9.18V-17.3H126.82V14.253q0,12.869-7.377,20T98.869,41.384Zm66.393,0a60.194,60.194,0,0,1-13.893-1.6,37.244,37.244,0,0,1-11.107-4.3l6.229-14.1a39.72,39.72,0,0,0,9.18,3.811,35.883,35.883,0,0,0,9.754,1.434,15.118,15.118,0,0,0,5.738-.779,2.5,2.5,0,0,0,1.721-2.336q0-1.8-2.254-2.7a48.475,48.475,0,0,0-7.418-1.967,84.124,84.124,0,0,1-11.066-2.992,18.858,18.858,0,0,1-7.7-5.246q-3.279-3.648-3.279-9.877A17.015,17.015,0,0,1,144.2-9.108a20.036,20.036,0,0,1,9.057-6.967,37.62,37.62,0,0,1,14.631-2.541,53.121,53.121,0,0,1,11.6,1.27,36.333,36.333,0,0,1,10.041,3.73L183.7.4a35.573,35.573,0,0,0-15.984-4.262q-7.459,0-7.459,3.607,0,1.721,2.213,2.582a46.866,46.866,0,0,0,7.3,1.844A75.015,75.015,0,0,1,180.836,7a19.25,19.25,0,0,1,7.828,5.2q3.32,3.607,3.32,9.836a16.827,16.827,0,0,1-3.033,9.8,20.415,20.415,0,0,1-9.057,6.967A37.09,37.09,0,0,1,165.262,41.384ZM217.557-2.3h-16.8v-15H253.7v15H236.9V40.073H217.557Zm78.607,43.689a35.4,35.4,0,0,1-16.639-3.852,28.735,28.735,0,0,1-15.738-26.148,28.735,28.735,0,0,1,15.738-26.148,37.86,37.86,0,0,1,33.279,0,28.735,28.735,0,0,1,15.738,26.148A28.735,28.735,0,0,1,312.8,37.532,35.4,35.4,0,0,1,296.164,41.384Zm0-15.656a12.332,12.332,0,0,0,6.516-1.762,12.618,12.618,0,0,0,4.631-5,15.923,15.923,0,0,0,1.721-7.582A15.923,15.923,0,0,0,307.311,3.8a12.618,12.618,0,0,0-4.631-5,12.929,12.929,0,0,0-13.033,0,12.618,12.618,0,0,0-4.631,5,15.922,15.922,0,0,0-1.721,7.582,15.922,15.922,0,0,0,1.721,7.582,12.618,12.618,0,0,0,4.631,5A12.332,12.332,0,0,0,296.164,25.728Zm98.852,14.344-.164-26.148L382.393,34.909h-8.525L361.41,14.827V40.073H343.787V-17.3h15.9l18.689,30.574,18.2-30.574h15.9l.164,57.377ZM430.18-17.3h19.344V40.073H430.18Zm87.541,42.377v15h-52.7V28.187L491.246-2.3h-25.41v-15H516.41V-5.419L490.18,25.073Zm61.557.41v14.59h-47.7V-17.3h46.639v14.59H550.59V4.007h24.262V17.941H550.59v7.541Z" transform="translate(41.384 -0.754) rotate(90)" fill="rgba(49,182,160,0.1)"/></svg>