<svg xmlns="http://www.w3.org/2000/svg" width="60.126" height="430" viewBox="0 0 60.126 430"><path d="M26.106,2.13A60.321,60.321,0,0,1,12.183.528,37.323,37.323,0,0,1,1.053-3.784L7.3-17.912a39.8,39.8,0,0,0,9.2,3.819,35.959,35.959,0,0,0,9.775,1.437,15.15,15.15,0,0,0,5.75-.78,2.506,2.506,0,0,0,1.725-2.341q0-1.807-2.259-2.711a48.578,48.578,0,0,0-7.434-1.971,84.3,84.3,0,0,1-11.089-3,18.9,18.9,0,0,1-7.721-5.257q-3.286-3.655-3.286-9.9A17.051,17.051,0,0,1,5-48.468a20.078,20.078,0,0,1,9.076-6.982A37.7,37.7,0,0,1,28.734-58a53.233,53.233,0,0,1,11.623,1.273,36.409,36.409,0,0,1,10.062,3.737L44.587-38.94A35.647,35.647,0,0,0,28.57-43.211q-7.475,0-7.475,3.614,0,1.725,2.218,2.587a46.964,46.964,0,0,0,7.31,1.848,75.171,75.171,0,0,1,11.089,2.834,19.291,19.291,0,0,1,7.844,5.216q3.327,3.614,3.327,9.857a16.863,16.863,0,0,1-3.039,9.816A20.458,20.458,0,0,1,40.767-.457,37.168,37.168,0,0,1,26.106,2.13ZM114.652-13.8V.816H66.847v-57.5h46.737v14.621H85.9v6.735h24.313v13.964H85.9V-13.8ZM142.826-41.65H125.987V-56.682h53.062V-41.65H162.211V.816H142.826Zm82.3-15.032h19.385v42.466H270.47V.816H225.129Zm58.894,0h19.385V.816H284.023Zm58.4,58.812A60.321,60.321,0,0,1,328.5.528a37.323,37.323,0,0,1-11.13-4.312l6.243-14.128a39.8,39.8,0,0,0,9.2,3.819,35.958,35.958,0,0,0,9.775,1.437,15.15,15.15,0,0,0,5.75-.78,2.506,2.506,0,0,0,1.725-2.341q0-1.807-2.259-2.711a48.578,48.578,0,0,0-7.434-1.971,84.3,84.3,0,0,1-11.089-3,18.9,18.9,0,0,1-7.721-5.257q-3.286-3.655-3.286-9.9a17.051,17.051,0,0,1,3.039-9.857,20.077,20.077,0,0,1,9.076-6.982A37.7,37.7,0,0,1,345.053-58a53.233,53.233,0,0,1,11.623,1.273,36.409,36.409,0,0,1,10.062,3.737L360.906-38.94a35.648,35.648,0,0,0-16.017-4.271q-7.475,0-7.475,3.614,0,1.725,2.218,2.587a46.964,46.964,0,0,0,7.31,1.848,75.172,75.172,0,0,1,11.089,2.834,19.291,19.291,0,0,1,7.844,5.216Q369.2-23.5,369.2-17.255a16.863,16.863,0,0,1-3.039,9.816,20.457,20.457,0,0,1-9.076,6.982A37.168,37.168,0,0,1,342.425,2.13Zm52.4-43.78H377.991V-56.682h53.062V-41.65H414.214V.816H394.829Z" transform="translate(2.13 -1.053) rotate(90)" fill="rgba(49,182,160,0.1)"/></svg>