<svg xmlns="http://www.w3.org/2000/svg" width="138.008" height="19.032" viewBox="0 0 138.008 19.032"><path d="M19.422-18.2V0H13.286V-6.708H7.618V0H1.482V-18.2H7.618v6.448h5.668V-18.2Zm5.564,0h6.136V0H24.986ZM43.472.416a19.094,19.094,0,0,1-4.407-.507,11.814,11.814,0,0,1-3.523-1.365l1.976-4.472A12.6,12.6,0,0,0,40.43-4.719a11.382,11.382,0,0,0,3.094.455,4.8,4.8,0,0,0,1.82-.247.793.793,0,0,0,.546-.741q0-.572-.715-.858a15.377,15.377,0,0,0-2.353-.624,26.684,26.684,0,0,1-3.51-.949,5.982,5.982,0,0,1-2.444-1.664,4.513,4.513,0,0,1-1.04-3.133,5.4,5.4,0,0,1,.962-3.12,6.355,6.355,0,0,1,2.873-2.21,11.933,11.933,0,0,1,4.641-.806,16.85,16.85,0,0,1,3.679.4,11.525,11.525,0,0,1,3.185,1.183l-1.846,4.446a11.284,11.284,0,0,0-5.07-1.352q-2.366,0-2.366,1.144,0,.546.7.819a14.866,14.866,0,0,0,2.314.585,23.8,23.8,0,0,1,3.51.9A6.106,6.106,0,0,1,50.895-8.84a4.429,4.429,0,0,1,1.053,3.12,5.338,5.338,0,0,1-.962,3.107A6.476,6.476,0,0,1,48.113-.4,11.765,11.765,0,0,1,43.472.416ZM60.06-13.442H54.73V-18.2h16.8v4.758H66.2V0H60.06ZM84.994.416A11.229,11.229,0,0,1,79.716-.806,9.179,9.179,0,0,1,76.05-4.2a9.214,9.214,0,0,1-1.326-4.9A9.214,9.214,0,0,1,76.05-14a9.179,9.179,0,0,1,3.666-3.393,11.229,11.229,0,0,1,5.278-1.222,11.229,11.229,0,0,1,5.278,1.222A9.179,9.179,0,0,1,93.938-14a9.214,9.214,0,0,1,1.326,4.9,9.214,9.214,0,0,1-1.326,4.9A9.179,9.179,0,0,1,90.272-.806,11.229,11.229,0,0,1,84.994.416Zm0-4.966a3.912,3.912,0,0,0,2.067-.559A4,4,0,0,0,88.53-6.695a5.051,5.051,0,0,0,.546-2.4,5.051,5.051,0,0,0-.546-2.405,4,4,0,0,0-1.469-1.586,3.912,3.912,0,0,0-2.067-.559,3.912,3.912,0,0,0-2.067.559,4,4,0,0,0-1.469,1.586A5.051,5.051,0,0,0,80.912-9.1a5.051,5.051,0,0,0,.546,2.4,4,4,0,0,0,1.469,1.586A3.912,3.912,0,0,0,84.994-4.55ZM107.9-4.576h-1.664V0H100.1V-18.2h8.762a10.743,10.743,0,0,1,4.394.832,6.475,6.475,0,0,1,2.886,2.392,6.529,6.529,0,0,1,1.014,3.64,6.434,6.434,0,0,1-.884,3.406,6.242,6.242,0,0,1-2.548,2.314L117.546,0h-6.552Zm3.068-6.76a2,2,0,0,0-.624-1.573,2.73,2.73,0,0,0-1.872-.559h-2.236V-9.2h2.236a2.73,2.73,0,0,0,1.872-.559A2,2,0,0,0,110.968-11.336ZM132.626-6.6V0H126.49V-6.682L119.626-18.2H126.1l3.718,6.292,3.744-6.292h5.928Z" transform="translate(-1.482 18.616)" fill="#fff"/></svg>