<svg xmlns="http://www.w3.org/2000/svg" width="183.508" height="19.032" viewBox="0 0 183.508 19.032"><path d="M10.894.416a11.058,11.058,0,0,1-5.2-1.209,9.038,9.038,0,0,1-3.627-3.38A9.332,9.332,0,0,1,.754-9.1a9.332,9.332,0,0,1,1.313-4.927,9.038,9.038,0,0,1,3.627-3.38,11.058,11.058,0,0,1,5.2-1.209,11.415,11.415,0,0,1,4.732.936,8.783,8.783,0,0,1,3.432,2.7l-3.874,3.458a4.97,4.97,0,0,0-3.978-2.132,4.064,4.064,0,0,0-3.094,1.235A4.622,4.622,0,0,0,6.942-9.1a4.622,4.622,0,0,0,1.17,3.315A4.064,4.064,0,0,0,11.206-4.55a4.97,4.97,0,0,0,3.978-2.132l3.874,3.458a8.783,8.783,0,0,1-3.432,2.7A11.415,11.415,0,0,1,10.894.416Zm20.982,0A9,9,0,0,1,25.35-1.846,8.412,8.412,0,0,1,23.01-8.19V-18.2h6.136v9.828a4.729,4.729,0,0,0,.715,2.912,2.472,2.472,0,0,0,2.067.91A2.472,2.472,0,0,0,34-5.46a4.729,4.729,0,0,0,.715-2.912V-18.2h6.032V-8.19A8.412,8.412,0,0,1,38.4-1.846,9,9,0,0,1,31.876.416Zm21.06,0a19.094,19.094,0,0,1-4.407-.507,11.814,11.814,0,0,1-3.523-1.365l1.976-4.472a12.6,12.6,0,0,0,2.912,1.209,11.382,11.382,0,0,0,3.094.455,4.8,4.8,0,0,0,1.82-.247.793.793,0,0,0,.546-.741q0-.572-.715-.858a15.377,15.377,0,0,0-2.353-.624,26.684,26.684,0,0,1-3.51-.949,5.982,5.982,0,0,1-2.444-1.664,4.513,4.513,0,0,1-1.04-3.133,5.4,5.4,0,0,1,.962-3.12,6.355,6.355,0,0,1,2.873-2.21,11.933,11.933,0,0,1,4.641-.806,16.85,16.85,0,0,1,3.679.4,11.525,11.525,0,0,1,3.185,1.183l-1.846,4.446a11.284,11.284,0,0,0-5.07-1.352q-2.366,0-2.366,1.144,0,.546.7.819a14.866,14.866,0,0,0,2.314.585,23.8,23.8,0,0,1,3.51.9A6.106,6.106,0,0,1,60.359-8.84a4.429,4.429,0,0,1,1.053,3.12,5.338,5.338,0,0,1-.962,3.107A6.475,6.475,0,0,1,57.577-.4,11.765,11.765,0,0,1,52.936.416ZM69.524-13.442h-5.33V-18.2h16.8v4.758H75.66V0H69.524ZM94.458.416A11.229,11.229,0,0,1,89.18-.806,9.179,9.179,0,0,1,85.514-4.2a9.214,9.214,0,0,1-1.326-4.9A9.214,9.214,0,0,1,85.514-14a9.179,9.179,0,0,1,3.666-3.393,11.229,11.229,0,0,1,5.278-1.222,11.229,11.229,0,0,1,5.278,1.222A9.179,9.179,0,0,1,103.4-14a9.214,9.214,0,0,1,1.326,4.9A9.214,9.214,0,0,1,103.4-4.2,9.179,9.179,0,0,1,99.736-.806,11.229,11.229,0,0,1,94.458.416Zm0-4.966a3.912,3.912,0,0,0,2.067-.559,4,4,0,0,0,1.469-1.586,5.051,5.051,0,0,0,.546-2.4,5.051,5.051,0,0,0-.546-2.405,4,4,0,0,0-1.469-1.586,3.912,3.912,0,0,0-2.067-.559,3.912,3.912,0,0,0-2.067.559,4,4,0,0,0-1.469,1.586A5.051,5.051,0,0,0,90.376-9.1a5.051,5.051,0,0,0,.546,2.4,4,4,0,0,0,1.469,1.586A3.912,3.912,0,0,0,94.458-4.55ZM125.814,0l-.052-8.294L121.81-1.638h-2.7l-3.952-6.37V0h-5.59V-18.2h5.044l5.928,9.7,5.772-9.7h5.044L131.4,0Zm11.154-18.2H143.1V0h-6.136ZM164.736-4.758V0H148.018V-3.77l8.32-9.672h-8.06V-18.2H164.32v3.77L156-4.758Zm19.526.13V0H169.13V-18.2h14.794v4.628h-8.762v2.132h7.7v4.42h-7.7v2.392Z" transform="translate(-0.754 18.616)" fill="#fff"/></svg>