<svg xmlns="http://www.w3.org/2000/svg" width="66.24" height="14.48" viewBox="0 0 66.24 14.48"><path d="M1.66-14H8.02a8.938,8.938,0,0,1,4.03.87,6.514,6.514,0,0,1,2.72,2.45A6.891,6.891,0,0,1,15.74-7a6.891,6.891,0,0,1-.97,3.68A6.514,6.514,0,0,1,12.05-.87,8.938,8.938,0,0,1,8.02,0H1.66ZM7.86-2.66a4.7,4.7,0,0,0,3.35-1.17A4.132,4.132,0,0,0,12.46-7a4.132,4.132,0,0,0-1.25-3.17,4.7,4.7,0,0,0-3.35-1.17H4.9v8.68ZM29.1,0,26.4-3.9H23.42V0H20.18V-14h6.06a7.777,7.777,0,0,1,3.23.62,4.8,4.8,0,0,1,2.11,1.76,4.849,4.849,0,0,1,.74,2.7,4.752,4.752,0,0,1-.75,2.69A4.754,4.754,0,0,1,29.44-4.5L32.58,0Zm-.06-8.92a2.218,2.218,0,0,0-.76-1.81,3.4,3.4,0,0,0-2.22-.63H23.42v4.88h2.64a3.365,3.365,0,0,0,2.22-.64A2.224,2.224,0,0,0,29.04-8.92ZM43.66.24A8.172,8.172,0,0,1,39.73-.7a6.977,6.977,0,0,1-2.74-2.59A7.071,7.071,0,0,1,36-7a7.071,7.071,0,0,1,.99-3.71,6.977,6.977,0,0,1,2.74-2.59,8.172,8.172,0,0,1,3.93-.94,8.114,8.114,0,0,1,3.92.94,7.067,7.067,0,0,1,2.74,2.59,7.017,7.017,0,0,1,1,3.71,7.017,7.017,0,0,1-1,3.71A7.067,7.067,0,0,1,47.58-.7,8.114,8.114,0,0,1,43.66.24Zm0-2.76a4.443,4.443,0,0,0,2.24-.57,4.09,4.09,0,0,0,1.57-1.59A4.674,4.674,0,0,0,48.04-7a4.674,4.674,0,0,0-.57-2.32,4.09,4.09,0,0,0-1.57-1.59,4.443,4.443,0,0,0-2.24-.57,4.443,4.443,0,0,0-2.24.57,4.09,4.09,0,0,0-1.57,1.59A4.674,4.674,0,0,0,39.28-7a4.674,4.674,0,0,0,.57,2.32,4.09,4.09,0,0,0,1.57,1.59A4.443,4.443,0,0,0,43.66-2.52ZM61.82-14a7.777,7.777,0,0,1,3.23.62,4.8,4.8,0,0,1,2.11,1.76,4.848,4.848,0,0,1,.74,2.7,4.861,4.861,0,0,1-.74,2.69,4.713,4.713,0,0,1-2.11,1.76,7.888,7.888,0,0,1-3.23.61H59V0H55.76V-14Zm-.18,7.5a3.4,3.4,0,0,0,2.22-.63,2.194,2.194,0,0,0,.76-1.79,2.218,2.218,0,0,0-.76-1.81,3.4,3.4,0,0,0-2.22-.63H59V-6.5Z" transform="translate(-1.66 14.24)" fill="#fff"/></svg>