<svg xmlns="http://www.w3.org/2000/svg" width="19.369" height="14.609" viewBox="0 0 19.369 14.609"><path d="M10.537-5.879A7.2,7.2,0,0,1,9.316-1.367,4.261,4.261,0,0,1,5.742.2,4.291,4.291,0,0,1,2.188-1.338,6.992,6.992,0,0,1,.928-5.732V-8.35a7.109,7.109,0,0,1,1.235-4.521,4.293,4.293,0,0,1,3.56-1.543,4.3,4.3,0,0,1,3.555,1.528,6.97,6.97,0,0,1,1.26,4.39ZM7.715-8.75a5.2,5.2,0,0,0-.483-2.573,1.634,1.634,0,0,0-1.509-.806,1.605,1.605,0,0,0-1.47.767,4.864,4.864,0,0,0-.5,2.4v3.457a5.456,5.456,0,0,0,.474,2.583,1.612,1.612,0,0,0,1.519.845,1.585,1.585,0,0,0,1.494-.811,5.325,5.325,0,0,0,.479-2.48ZM20.3,0H17.475V-10.879L14.105-9.834v-2.295l5.889-2.109h.3Z" transform="translate(-0.928 14.414)" fill="#31b6a0"/></svg>