<svg xmlns="http://www.w3.org/2000/svg" width="29.162" height="11.688" viewBox="0 0 29.162 11.688"><path d="M10.359-5.43a6.867,6.867,0,0,1-.594,2.945,4.472,4.472,0,0,1-1.7,1.953A4.7,4.7,0,0,1,5.531.156a4.732,4.732,0,0,1-2.523-.68A4.515,4.515,0,0,1,1.289-2.465a6.67,6.67,0,0,1-.617-2.9V-5.93a6.831,6.831,0,0,1,.605-2.957,4.508,4.508,0,0,1,1.711-1.961,4.706,4.706,0,0,1,2.527-.684,4.706,4.706,0,0,1,2.527.684A4.508,4.508,0,0,1,9.754-8.887a6.811,6.811,0,0,1,.605,2.949ZM7.984-5.945a4.787,4.787,0,0,0-.641-2.719,2.088,2.088,0,0,0-1.828-.93,2.088,2.088,0,0,0-1.82.918,4.732,4.732,0,0,0-.648,2.691v.555a4.847,4.847,0,0,0,.641,2.7,2.082,2.082,0,0,0,1.844.961,2.064,2.064,0,0,0,1.813-.926,4.819,4.819,0,0,0,.641-2.7Zm11.722,1.3h-4.5V0H12.863V-11.375h7.406v1.9H15.206v2.938h4.5Zm9.566,0h-4.5V0H22.428V-11.375h7.406v1.9H24.772v2.938h4.5Z" transform="translate(-0.672 11.531)" fill="#333"/></svg>