<svg xmlns="http://www.w3.org/2000/svg" width="26" height="16.312" viewBox="0 0 26 16.312"><path d="M1716.414,199l2-2h2.086a1,1,0,0,1,0,2Zm5.962-5.962L1720.414,195H1722a3,3,0,0,1,0,6h-4a1,1,0,0,0,0,2h4a4.988,4.988,0,0,0,.376-9.962Zm-.513-1.487a1,1,0,0,0,.226-1.054.981.981,0,0,0-.226-.36,1,1,0,0,0-1.414,0l-3.155,3.155,0,0L1713.586,197H1707.5a1,1,0,0,0,0,2h4.086l-2,2H1706a3,3,0,0,1,0-6h4a1,1,0,0,0,0-2h-4a5,5,0,0,0,0,10h1.586l-1.449,1.449a1,1,0,1,0,1.414,1.414l.36-.36Z" transform="translate(-1701 -189.844)" fill="#333"/></svg>