<svg xmlns="http://www.w3.org/2000/svg" width="26" height="18" viewBox="0 0 26 18"><path d="M1672,129h0a2,2,0,0,1-2-2h0a2,2,0,0,1,2-2h0a2,2,0,0,1,2,2h0A2,2,0,0,1,1672,129Zm24-2h0a1.5,1.5,0,0,0-1.5-1.5h-17a1.5,1.5,0,0,0-1.5,1.5h0a1.5,1.5,0,0,0,1.5,1.5h17A1.5,1.5,0,0,0,1696,127Zm-24,9h0a2,2,0,0,1-2-2h0a2,2,0,0,1,2-2h0a2,2,0,0,1,2,2h0A2,2,0,0,1,1672,136Zm24-2h0a1.5,1.5,0,0,0-1.5-1.5h-17a1.5,1.5,0,0,0-1.5,1.5h0a1.5,1.5,0,0,0,1.5,1.5h17A1.5,1.5,0,0,0,1696,134Zm-24,9h0a2,2,0,0,1-2-2h0a2,2,0,0,1,2-2h0a2,2,0,0,1,2,2h0A2,2,0,0,1,1672,143Zm24-2h0a1.5,1.5,0,0,0-1.5-1.5h-17a1.5,1.5,0,0,0-1.5,1.5h0a1.5,1.5,0,0,0,1.5,1.5h17A1.5,1.5,0,0,0,1696,141Z" transform="translate(-1670 -125)" fill="#31b6a0"/></svg>